<svg xmlns="http://www.w3.org/2000/svg" viewBox="0 0 581 480"><path d="M116.95 142.45c-8.377 1.472-6.747-10.024 6.023-13.62 14.427-.075 13.71-1.978 21.386-3.647 1.353-36.8 3.714-72.215 6.747-95.513-7.094 1.018-14.193 2.707-20.947 4.402-3.042.677-3.717-.336-3.042-2.707 1.69-7.1 5.068-13.884 13.178-15.58 4.052-1.013 8.785-1.695 13.513-2.37 1.35-5.08 3.382-10.494 9.8-13.207 1.686-.677 2.366.34 2.026 2.036-.34 3.048-1.016 6.092-1.35 9.817 34.8-3.726 82.103-2.708 107.78 1.018 2.7.336 2.7 1.013 1.69 2.707-2.707 5.08-7.434 7.45-13.853 7.1-27.37-.677-63.187-.336-97.31 4.743-2.026 25.396-3.717 59.596-4.393 95.49 21.287-3.05 45.276-4.06 66.223-1.695 1.69.34 1.35 1.018.675 2.372-2.702 5.08-7.094 6.774-12.837 6.774-17.905.336-35.816 2.03-54.396 5.756-.34 47.748.675 96.51 4.728 128 .34 2.366-.335 3.043-2.702 2.366-5.743-1.354-11.486-4.738-13.178-18.622-3.013-25.16-3.704-66.272-2.73-107.87-5.542 1.08-14.265 2.17-27.034 2.232zm431.94 82.626c1.2 3.115.303 7.136-.976 12.154-5.448 20.058-21.122 35.176-42.08 28.306-8.346-2.793-15.66-8.722-19.934-18.77-4.852 13.39-14.492 20.66-24.606 16.43-7.236-3.092-11.655-8.544-14.085-16.193-4.212 9.86-11.675 16.188-22.96 12.89-8.264-2.463-13.403-7.865-16.345-16.2-4.332 11.33-12.544 16.288-22.013 12.15-8.274-3.487-12.61-11.176-14.368-22.796-5.007 18.048-14.716 29.066-31.25 21.756-5.574-2.396-10.556-7.23-13.52-14.718-4.132 5.657-9.866 7.29-15.692 5.182-8.966-3.182-16.8-8.68-18.543-27.082-1.748-18.403-.136-36.293.554-49.48-.21-2.38-.815-3.768-2.305-1.135-6.407 12.547-19.827 42.7-25.097 78.704-.494 3.027-1.186 3.332-3.192 2.885-6.004-1.67-10.267-4.27-10.57-11.405l-.026-.663c-4.606 6.415-11.175 8.652-18.495 5.454-8.274-3.487-12.61-11.176-14.368-22.796-5.007 18.048-14.716 29.066-31.25 21.756-12.572-5.405-22.132-23.204-12.3-55.915 10.63-35.044 30.584-47.9 43.977-38.72 3.928 2.582 6.736 7.137 8.512 11.975 1.883-3.63 5.362-5.482 8.095-6.016 1.707-.252 2.345.465 1.917 2.134-10.665 35.725-9.767 76.798-2.092 78.898 3.58 1.03 11.55-6.743 16.32-20.65 1.023-21.725 3.806-47.78 7.683-63.197 1.685-6.358 4.53-8.92 9.32-10.024 2.4-.552 3.038.16 2.592 2.17-3.635 17.784-6.682 50.174-6.852 72.884 5.5-21.075 15.97-46.633 22.98-57.793 4.048-6.23 7.496-7.41 13.337-2.694 5.188 4.345 6.183 11.18 5.742 19.632-1.63 24.667-3.148 60.2 5.837 63.037 3.493 1.174 7.848-3.15 11.177-10.24-.466-7.734.645-17.067 3.96-28.094 10.63-35.045 30.585-47.9 43.977-38.72 3.928 2.58 6.736 7.137 8.512 11.975 1.883-3.63 5.362-5.482 8.095-6.017 1.706-.252 2.345.465 1.917 2.134-10.665 35.725-9.767 76.798-2.092 78.898 3.6 1.04 11.683-6.873 16.438-21-.528-8.882-.108-19.44.86-31.67 1.63-18.22 4.754-39.084 8.74-57.185-8.13.25-16.62.824-25.142 2.074-2.38.21-2.65-1.16-1.9-2.475.886-4.02 4.806-7.886 10.582-8.26 5.77-.375 11.86-.396 18.29-.395 2.977-11.713 5.87-21.733 8.265-28.727 1.56-4 4.758-6.87 7.85-7.727 1.724-.587 2.023.106 1.583 2.117-2.13 8.368-4.456 20.452-6.865 34.228 17.9.6 36.758 2.267 54.163 5.898 1.33.406 1.296 1.082.568 2.063-2.165 2.598-5.648 4.448-10.012 3.882-14.795-1.796-29.96-2.93-46.193-3.104-3.014 18.83-5.406 38.708-6.648 55.94-2.3 31.073-1.176 54.87 6.09 58.3 4.987 2.547 13.806-4.066 19.787-19.377-.13-3.06-.12-6.316.007-9.76.51-16.25 4.073-32.677 7.59-41.65 1.972-5.32 6.16-7.815 9.233-8.332 1.706-.247 2.698.142 2.293 1.476-10.185 39.48-7.5 78.955-.55 81.695 4.853 1.9 13.402-6.766 19.038-21.804-.808-6.533-.7-14.144.556-22.947 5.78-39.37 26.252-55.587 39.627-46.07 7.516 5.145 12.828 13.557 12.314 23.366-.672 12.848-8.133 19.58-13.546 19.633-2.023-.106-2.363-.124-1.952-1.458 6.954-16.6 5.193-34.652-.506-35.63-7.03-1.39-20.42 21.647-22.844 48.647-1.7 19.577 1.962 33.672 9.186 37.777 14.46 8.22 34.164-12.786 40.877-31.08.78-1.992 2.147-2.262 2.733-.534zm-407.66 146.16c-26.015.34-57.098 4.06-82.778 12.53-2.026.677-3.377.336-2.7-2.372 1.35-6.774 4.052-12.866 11.487-15.237 20.106-5.94 51.224-8.73 78.2-7.162 14.975-.137 33.26 3.226 51.936 10.103 16.067 5.917 58.394 23 78.413 29.248 83.66 26.067 240.34 80.436 280.13-22.03l2.2 13.668 13.352-18.336-.144 21.185 9.67-9.462c-40.296 159.05-320.76 27.477-409.53-6.764-14.76-5.694-16.738-3.435-17.195-3.578-2.93 37.357-3.852 75.54-.193 104.53.335 2.036-.675 3.048-3.717 2.036-5.743-2.036-12.502-6.097-13.178-17.95-.675-10.158 0-21.334 1.016-33.182-10.476 35.9-33.114 49.097-54.737 49.773-39.193 1.018-84.134-34.2-83.46-103.95 1.016-84.997 52.37-147.64 91.903-147.98 43.25-.34 52.035 50.45 50.685 73.14-1.016 18.627-9.8 30.816-19.26 33.523-2.366.682-3.377.34-2.7-2.708 10.81-39.62-.34-95.15-28.382-94.473-26.696.677-72.307 52.486-74.673 132.74-1.686 57.9 21.628 98.198 61.155 98.54 28.722.336 58.454-32.17 62.506-95.832zm319.1 11.3c0-6.435-2.205-12.843-2.205-19.463 0-4.213.608-12.956 4.41-15.576.905.536 1.838 9.753 1.992 11.37 3.918-24.104 8.387-54.095 27.49-71.35 2.286-2.065 5.207-3.82 8.385-3.82 1.567 0 7.516 1.194 7.516 3.313 0 2.334-6.505 4.603-6.505 15.173 0 23.287 16.167 51.872 16.167 80.712 0 17.38-8.638 37.412-28.924 37.412-12.303 0-19.696-11.288-23.882-21.51-2.816 9.68-8.327 23.266-20.373 23.266-22.175 0-26.265-33.363-26.265-49.87 0-18.102 3.2-36.253 8.754-53.45-7.42 4.027-14.6 5.45-22.92 6.19-.657 25.178-3.603 50.273-3.603 75.48 0 6.677 1.105 13.418 1.105 19.976 0 .68.07 1.82-.837 1.82-5.304 0-9.412-6.106-10.917-10.606-2.167 2.478-5.14 4.003-8.453 4.003-14.406 0-21.163-16.04-23.54-27.814-1.317 8.486-4.12 22.664-15.168 22.664-11.412 0-21.67-10.354-25.95-20.175-2.046 4.27-5.35 7.124-10.247 7.124-14.878 0-25.576-14.533-29.118-27.473-2.365 5.572-6.634 10.085-13.043 10.085-13.253 0-23.366-14.283-26.055-25.944-2.124 2.788-5.362 4.654-8.915 4.654-12.135 0-19.46-10.368-22.757-20.855-3.624 8.74-10.178 15.714-20.248 15.714-18.703 0-21.094-20.98-21.094-35.272 0-9.764 4.267-62.13 16.62-62.13 1.912 0 2.155-.097 2.155 1.657l-.096 1.223c-2.62 18.615-6.053 36.55-6.053 55.482 0 7.95.11 30.235 11.822 30.235 17.104 0 12.524-65.174 21.55-74.066 1.667-1.642 4.1-2.405 6.427-2.405 1.943 0 2.18.606 2.18 2.132l-.084 1.144c-1.652 15.518-3.512 30.855-3.512 46.498 0 6.008.03 31.74 9.46 31.74 5.08 0 10.7-12.03 10.7-16.29 0-8.032.767-36.917 12.272-36.917 1.28 0 2.233.368 2.233 1.792 0 2.71-1.045 6.14-1.397 8.914-.876 6.9-1.29 13.855-1.29 20.808 0 7.59.817 43.133 11.085 43.133 6.564 0 15.106-13.974 15.106-19.643 0-10.695-1.22-21.5-1.22-32.263 0-13.528 1.105-27.05 2.69-40.478-5.157-.562-9.993-.62-15.164-.62-1.505 0-1.887-.87-1.887-2.085 0-3.62 2.984-7.676 6.794-7.676 3.623 0 7.617.414 11.196.98 1.256-8.643 2.148-18.387 4.684-26.72.786-2.584 3.13-4.96 5.994-4.96.448 0 .99.194 1.432.28.077.483.243 1.04.243 1.53 0 10.043-1.898 20.976-2.57 31.103 5.22.74 86.772 9.426 87.08 9.706-.537 3.962-6.168 6.21-9.646 6.21-27.638 4.86-63.88-5.38-78.008-6.92-.557 9.83-1 19.68-1 29.528 0 12.38.182 79.186 15.76 79.186 5.43 0 11.384-8.553 12.102-13.384.35-2.36-.447-6.027-.447-8.566 0-18.193 7.203-56.37 31.202-56.37 7.33 0 13.437 4.816 17.25 10.76 1.28-2.696 5.42-5.958 8.45-5.958 1.234 0 1.34.442 1.34 1.647 0 3.607-1.554 8.358-2.018 12.1-1.166 9.375-1.606 18.842-1.606 28.286 0 7.906.67 48.054 9.464 48.054 5.137 0 11.248-14.513 12.004-18.608 1.907-10.33 2.042-22.53 3.304-33.176 1.17-9.865 2.456-19.756 2.805-29.693-7.492-2.663-11.203-7.775-11.203-15.775 0-6.36 3.4-20.265 11.736-20.265 8.058 0 8.77 22.822 8.955 28.5 17.263-.895 33.87-20.52 34.97-20.52 3.957 0 8.646 5.845 8.646 9.76 0 1.633-.54 3.147-1.236 4.6-9.43 19.712-13.88 51.206-13.88 73.33 0 5.52.306 27.912 9.177 27.912 8.127 0 18.63-22.05 18.63-28.51zm-114.88-65.27c-4.516 0-9.355 6.61-11.397 10.017-6.987 11.657-9.194 30.356-9.194 43.71 0 7.09 1.843 31.45 12.115 31.45 15.792 0 18.9-52.48 18.9-62.614 0-6.313-1.282-22.564-10.426-22.564zm123.66 60.404c0 7.125 12.165 24.502 18.85 28.13 2.478 1.345 5.175 2.334 8.028 2.334 7.427 0 9.816-5.895 9.816-12.404 0-25.44-17.51-54.95-17.51-82.28 0-2.676.242-5.37.965-7.954-5.707 8.578-8.97 19.522-11.436 29.44-2.008 8.073-8.71 35.915-8.71 42.732zM373.327 192.1c1.47-15.18-1.764-24.504-6.755-26.122-6.656-2.047-21.89 17.497-27.246 42.3-5.8 26.823.342 38.673 6.347 40.344 8.345 2.135 24-18.748 27.654-56.533zm-152.5-13.3c1.47-15.18-1.764-24.504-6.755-26.122-6.656-2.047-21.89 17.498-27.246 42.31-5.8 26.823.342 38.673 6.346 40.344 8.345 2.135 23.99-18.748 27.654-56.533zm27.17 93.02c3.923 0 5.932 5.858 5.932 9.043 0 3.527-1.88 8.002-6.01 8.002-4.098 0-6.245-3.488-6.245-7.247 0-3.355 2.19-9.798 6.322-9.798zm206.6-110.73c.94-5.037 4.935-10.255 9.357-10.7 3.055-.176 6.644 2.382 7.053 7.5.338 6.465-4.314 11.306-9.075 11.734-5.096.4-8.31-2.81-7.334-8.524z" fill="#fff" fill-rule="evenodd"/></svg>