<?xml version="1.0" standalone="no"?>
<!DOCTYPE svg PUBLIC "-//W3C//DTD SVG 20010904//EN"
 "http://www.w3.org/TR/2001/REC-SVG-20010904/DTD/svg10.dtd">
<svg version="1.0" xmlns="http://www.w3.org/2000/svg"
 width="811.000000pt" height="342.000000pt" viewBox="0 0 811.000000 342.000000"
 preserveAspectRatio="xMidYMid meet">

<g transform="translate(0.000000,342.000000) scale(0.100000,-0.100000)"
fill="#000000" stroke="none">
<path d="M823 2813 c9 -2 23 -2 30 0 6 3 -1 5 -18 5 -16 0 -22 -2 -12 -5z"/>
<path d="M2313 2583 c9 -2 23 -2 30 0 6 3 -1 5 -18 5 -16 0 -22 -2 -12 -5z"/>
<path d="M2215 1805 c0 -385 1 -541 2 -347 2 195 2 510 0 700 -1 191 -2 32 -2
-353z"/>
<path d="M4766 2243 c-3 -4 -25 -10 -49 -14 l-42 -6 47 -2 c26 0 50 4 53 10 8
12 1 22 -9 12z"/>
<path d="M2455 2216 c-14 -21 -16 -95 -13 -652 2 -490 6 -636 16 -659 18 -41
79 -102 124 -126 119 -61 263 -15 340 109 23 36 23 43 29 407 4 204 7 414 8
468 1 95 2 100 30 128 24 24 38 29 76 29 38 0 52 -5 75 -28 16 -16 33 -47 39
-70 30 -110 141 -97 141 17 0 91 -87 196 -184 222 -52 14 -131 8 -176 -14 -44
-21 -119 -93 -132 -127 -6 -14 -14 -195 -19 -430 -11 -544 -10 -539 -43 -567
-38 -32 -105 -32 -143 1 l-28 24 -7 244 c-3 133 -6 416 -7 626 l-1 384 -22 19
c-33 27 -84 25 -103 -5z"/>
<path d="M7658 2223 c12 -2 32 -2 45 0 12 2 2 4 -23 4 -25 0 -35 -2 -22 -4z"/>
<path d="M4770 2064 c0 -19 -5 -45 -11 -57 -10 -21 -10 -21 5 -3 14 18 23 96
11 96 -3 0 -5 -16 -5 -36z"/>
<path d="M7474 2068 l-19 -23 23 19 c12 11 22 21 22 23 0 8 -8 2 -26 -19z"/>
<path d="M4520 2065 c-7 -9 -11 -17 -9 -20 3 -2 10 5 17 15 14 24 10 26 -8 5z"/>
<path d="M7451 2014 c0 -11 3 -14 6 -6 3 7 2 16 -1 19 -3 4 -6 -2 -5 -13z"/>
<path d="M7934 1885 c0 -49 1 -71 3 -48 2 23 2 64 0 90 -2 26 -3 8 -3 -42z"/>
<path d="M945 1465 c0 -264 1 -371 2 -237 2 134 2 350 0 480 -1 130 -2 21 -2
-243z"/>
<path d="M354 1520 c0 -179 2 -252 3 -162 2 89 2 235 0 325 -1 89 -3 16 -3
-163z"/>
<path d="M3202 1632 l-23 -18 7 -349 c7 -388 9 -398 75 -464 49 -49 103 -71
178 -71 79 0 134 24 186 82 59 64 64 86 67 286 3 165 1 182 -16 201 -25 27
-77 28 -101 1 -15 -17 -19 -46 -24 -196 l-6 -176 -33 -29 c-47 -42 -99 -40
-146 5 l-36 33 0 335 0 335 -23 21 c-28 26 -73 28 -105 4z"/>
<path d="M4930 1461 c0 -6 4 -13 10 -16 6 -3 7 1 4 9 -7 18 -14 21 -14 7z"/>
<path d="M6612 1405 c0 -16 2 -22 5 -12 2 9 2 23 0 30 -3 6 -5 -1 -5 -18z"/>
<path d="M6752 1405 c0 -16 2 -22 5 -12 2 9 2 23 0 30 -3 6 -5 -1 -5 -18z"/>
<path d="M5321 1404 c0 -11 3 -14 6 -6 3 7 2 16 -1 19 -3 4 -6 -2 -5 -13z"/>
<path d="M6191 1404 c0 -11 3 -14 6 -6 3 7 2 16 -1 19 -3 4 -6 -2 -5 -13z"/>
<path d="M5299 1353 c-13 -16 -12 -17 4 -4 9 7 17 15 17 17 0 8 -8 3 -21 -13z"/>
<path d="M6673 1333 c9 -2 23 -2 30 0 6 3 -1 5 -18 5 -16 0 -22 -2 -12 -5z"/>
<path d="M1314 850 c0 -135 2 -190 3 -122 2 67 2 177 0 245 -1 67 -3 12 -3
-123z"/>
<path d="M5755 1070 c-13 -6 -15 -9 -5 -9 8 0 22 4 30 9 18 12 2 12 -25 0z"/>
<path d="M6415 1070 c-13 -6 -15 -9 -5 -9 8 0 22 4 30 9 18 12 2 12 -25 0z"/>
<path d="M4414 995 l1 -70 35 -1 c34 -2 34 -2 3 3 -32 4 -32 4 -36 71 l-3 67
0 -70z"/>
<path d="M5452 990 c0 -14 2 -19 5 -12 2 6 2 18 0 25 -3 6 -5 1 -5 -13z"/>
<path d="M4733 973 c9 -2 23 -2 30 0 6 3 -1 5 -18 5 -16 0 -22 -2 -12 -5z"/>
<path d="M1091 944 c0 -11 3 -14 6 -6 3 7 2 16 -1 19 -3 4 -6 -2 -5 -13z"/>
<path d="M4414 585 l1 -70 35 -1 c34 -2 34 -2 3 3 -32 4 -32 4 -36 71 l-3 67
0 -70z"/>
<path d="M5414 585 l1 -70 35 -1 c34 -2 34 -2 3 3 -32 4 -32 4 -36 71 l-3 67
0 -70z"/>
<path d="M6313 620 c0 -25 2 -35 4 -22 2 12 2 32 0 45 -2 12 -4 2 -4 -23z"/>
<path d="M4865 630 c3 -5 8 -10 11 -10 2 0 4 5 4 10 0 6 -5 10 -11 10 -5 0 -7
-4 -4 -10z"/>
<path d="M5851 584 c0 -11 3 -14 6 -6 3 7 2 16 -1 19 -3 4 -6 -2 -5 -13z"/>
<path d="M4890 581 c0 -6 -15 -12 -32 -14 -32 -4 -32 -4 5 -5 27 -2 37 2 37
13 0 8 -2 15 -5 15 -3 0 -5 -4 -5 -9z"/>
<path d="M6630 570 l-35 -7 38 -2 c20 0 37 4 37 9 0 6 -1 9 -2 9 -2 -1 -19 -5
-38 -9z"/>
<path d="M1279 553 c-13 -16 -12 -17 4 -4 9 7 17 15 17 17 0 8 -8 3 -21 -13z"/>
<path d="M5829 533 c-13 -16 -12 -17 4 -4 9 7 17 15 17 17 0 8 -8 3 -21 -13z"/>
<path d="M5273 505 c0 -22 2 -30 4 -17 2 12 2 30 0 40 -3 9 -5 -1 -4 -23z"/>
<path d="M6312 510 c0 -14 2 -19 5 -12 2 6 2 18 0 25 -3 6 -5 1 -5 -13z"/>
<path d="M5773 513 c9 -2 23 -2 30 0 6 3 -1 5 -18 5 -16 0 -22 -2 -12 -5z"/>
<path d="M1841 385 c0 -33 4 -69 8 -80 5 -12 7 9 4 50 -6 91 -11 105 -12 30z"/>
<path d="M2051 324 c0 -11 3 -14 6 -6 3 7 2 16 -1 19 -3 4 -6 -2 -5 -13z"/>
</g>
</svg>
