<?xml version="1.0" standalone="no"?>
<!DOCTYPE svg PUBLIC "-//W3C//DTD SVG 20010904//EN"
 "http://www.w3.org/TR/2001/REC-SVG-20010904/DTD/svg10.dtd">
<svg version="1.0" xmlns="http://www.w3.org/2000/svg"
 width="1178.000000pt" height="954.000000pt" viewBox="0 0 1178.000000 954.000000"
 preserveAspectRatio="xMidYMid meet">

<g transform="translate(0.000000,954.000000) scale(0.100000,-0.100000)"
fill="#000000" stroke="none">
<path d="M7696 6536 c-62 -23 -117 -85 -128 -143 -13 -70 -21 -2575 -10 -3058
9 -402 10 -411 35 -483 85 -244 286 -427 534 -487 107 -26 281 -17 388 19 200
68 360 211 445 400 60 132 58 84 65 1411 l7 1220 23 50 c57 126 192 197 327
173 143 -26 233 -131 253 -293 10 -84 25 -115 80 -163 52 -46 90 -57 165 -50
55 6 102 36 147 95 27 35 28 41 27 152 0 105 -3 124 -32 200 -84 223 -246 382
-469 463 -44 15 -92 22 -193 25 -163 6 -221 -6 -359 -73 -78 -39 -110 -62
-181 -133 -91 -90 -143 -170 -189 -290 l-24 -66 -8 -670 c-4 -368 -8 -931 -8
-1251 l-1 -580 -26 -52 c-116 -233 -441 -228 -553 8 l-26 55 -5 1697 -5 1696
-30 44 c-56 78 -164 115 -249 84z"/>
<path d="M9765 4891 c-51 -23 -112 -91 -120 -133 -3 -18 -5 -451 -3 -963 l3
-930 27 -80 c69 -201 212 -359 404 -446 107 -49 182 -62 324 -56 108 4 136 9
208 35 111 41 193 93 273 172 112 110 188 249 208 382 5 35 11 261 13 503 l3
440 -28 48 c-16 26 -47 62 -70 78 -40 29 -46 31 -123 27 -70 -3 -85 -7 -117
-31 -20 -15 -48 -47 -61 -70 l-25 -42 -6 -435 c-8 -508 -7 -504 -94 -591 -64
-64 -124 -89 -211 -89 -87 0 -147 25 -211 89 -92 93 -86 27 -94 1041 -3 487
-10 903 -15 924 -24 110 -176 177 -285 127z"/>
</g>
</svg>
